<?xml version="1.0" standalone="no"?>
<!DOCTYPE svg PUBLIC "-//W3C//DTD SVG 20010904//EN"
 "http://www.w3.org/TR/2001/REC-SVG-20010904/DTD/svg10.dtd">
<svg version="1.0" xmlns="http://www.w3.org/2000/svg"
 width="2560.000000pt" height="854.000000pt" viewBox="0 0 2560.000000 854.000000"
 preserveAspectRatio="xMidYMid meet">

<g transform="translate(0.000000,854.000000) scale(0.100000,-0.100000)"
fill="#000000" stroke="none">
<path d="M6330 8081 c-71 -23 -132 -75 -165 -140 -27 -53 -31 -142 -10 -198
21 -55 83 -126 125 -143 20 -8 30 -19 30 -34 -1 -42 -216 -1090 -222 -1081 -6
10 -383 970 -390 991 -2 6 17 26 42 45 75 58 104 108 108 190 10 163 -97 279
-256 279 -77 0 -117 -16 -176 -70 -107 -99 -107 -270 -1 -373 21 -20 53 -42
71 -49 l34 -12 0 -530 c0 -313 -4 -526 -9 -520 -9 9 -433 674 -473 741 l-19
31 30 47 c115 182 -2 405 -214 405 -147 0 -257 -113 -256 -261 0 -135 99 -242
237 -256 47 -5 54 -9 58 -32 10 -45 165 -985 176 -1061 15 -105 37 -146 133
-247 47 -49 93 -105 102 -123 9 -18 30 -51 46 -73 50 -69 35 -173 -37 -249
-42 -45 -94 -136 -94 -166 0 -7 -13 -38 -30 -69 -46 -86 -36 -169 28 -236 62
-65 110 -76 432 -106 438 -41 1091 -41 1540 -1 196 18 344 41 368 56 13 9 36
36 53 62 39 61 40 138 4 206 -14 26 -25 62 -25 80 0 58 -29 132 -70 178 -66
75 -79 179 -31 245 16 22 37 55 46 73 9 18 55 74 102 123 96 101 118 142 133
247 11 76 166 1016 176 1061 4 23 11 27 58 32 63 6 121 34 166 79 48 48 70
102 70 178 0 150 -107 260 -255 260 -212 0 -329 -223 -214 -405 l30 -47 -19
-31 c-40 -67 -464 -732 -473 -741 -5 -6 -9 196 -9 495 l0 506 40 18 c48 22
105 82 128 134 36 85 11 211 -58 279 -128 128 -340 92 -420 -72 -55 -115 -1
-279 112 -337 l26 -14 -196 -482 c-109 -266 -199 -483 -202 -483 -5 0 -221
1075 -220 1098 0 6 6 12 14 12 22 0 105 80 129 124 29 54 31 174 3 226 -26 49
-74 98 -121 122 -43 22 -144 33 -185 19z m137 -157 c61 -39 67 -128 12 -180
-25 -24 -39 -29 -79 -29 -42 0 -54 5 -81 31 -101 101 28 257 148 178z m-791
-108 c29 -29 34 -41 34 -81 0 -40 -5 -52 -34 -81 -29 -29 -41 -34 -81 -34 -40
0 -52 5 -81 34 -29 29 -34 41 -34 81 0 40 5 52 34 81 29 29 41 34 81 34 40 0
52 -5 81 -34z m1617 -56 c21 -24 27 -40 27 -76 0 -39 -5 -51 -34 -80 -27 -27
-42 -34 -72 -34 -105 0 -163 113 -98 189 48 57 125 58 177 1z m-2403 -255 c40
-21 60 -53 60 -98 0 -66 -29 -103 -97 -122 -55 -15 -133 51 -133 112 0 94 89
150 170 108z m3130 0 c59 -30 79 -119 38 -170 -73 -93 -208 -48 -208 70 0 47
14 71 53 95 38 24 78 25 117 5z m-1517 -747 c54 -271 98 -496 97 -500 0 -5
-90 -8 -200 -8 -110 0 -200 3 -200 8 -2 18 195 992 200 992 3 0 49 -222 103
-492z m-654 -58 c94 -239 171 -440 171 -446 0 -7 -47 -13 -137 -18 -76 -4
-155 -10 -175 -13 l-38 -6 0 463 c0 255 2 461 4 459 3 -2 81 -200 175 -439z
m1277 -467 c-5 -5 -337 15 -343 21 -3 2 73 196 169 431 l173 426 3 -437 c1
-240 0 -439 -2 -441z m-1871 337 c103 -162 198 -311 211 -331 l22 -36 -151
-21 c-83 -12 -153 -19 -156 -17 -2 3 -28 148 -57 322 -29 175 -56 334 -59 353
-4 19 -5 33 -2 30 3 -3 89 -138 192 -300z m2426 -53 c-32 -191 -60 -349 -62
-351 -4 -3 -222 30 -272 42 l-28 7 208 327 c114 180 209 326 210 324 1 -1 -24
-158 -56 -349z m-876 -417 c304 -17 795 -72 795 -90 0 -12 -46 -68 -123 -149
l-77 -83 -68 11 c-128 21 -269 31 -600 43 -443 16 -1024 -4 -1264 -43 l-68
-11 -82 87 c-79 84 -125 142 -117 149 8 7 296 45 462 61 349 34 793 43 1142
25z m165 -421 c155 -8 340 -26 347 -32 1 -2 -5 -23 -13 -47 -12 -34 -13 -56
-6 -98 l9 -54 -41 6 c-124 18 -372 37 -603 46 -360 14 -863 -6 -1129 -46 l-42
-6 10 51 c8 47 4 82 -17 132 -5 13 2 18 37 23 284 40 966 52 1448 25z m35
-338 c240 -24 350 -41 375 -60 33 -24 50 -75 44 -131 -5 -39 -2 -50 25 -84 54
-68 41 -102 -45 -116 -421 -67 -1242 -78 -1794 -24 -244 23 -282 31 -307 60
-29 32 -29 46 1 81 13 15 26 46 30 68 10 52 37 104 73 137 24 23 43 28 148 42
66 8 181 20 255 26 74 5 155 12 180 14 93 8 910 -3 1015 -13z"/>
<path d="M10570 8074 c-96 -34 -178 -123 -201 -217 -24 -98 5 -212 73 -283
l29 -31 -96 -54 c-243 -136 -427 -321 -525 -524 -147 -308 -108 -635 101 -831
30 -28 65 -56 77 -63 22 -12 22 -12 -28 -77 -60 -79 -73 -102 -93 -174 -48
-170 -53 -243 -19 -330 30 -76 176 -151 382 -194 104 -22 104 -23 60 -29 -107
-17 -255 -27 -395 -27 -343 -1 -579 -30 -692 -86 -93 -45 -213 -169 -213 -221
0 -15 17 -41 48 -71 78 -79 153 -89 312 -45 95 26 96 26 590 33 496 8 564 13
663 49 12 5 35 4 52 -1 122 -37 170 -40 665 -48 l495 -7 90 -26 c152 -45 231
-34 308 43 66 66 65 90 -11 162 -66 63 -149 119 -230 155 -84 37 -218 52 -572
63 -179 5 -359 15 -400 22 l-75 12 40 8 c212 46 336 95 406 160 31 28 38 43
49 104 7 39 10 84 8 100 -32 177 -72 278 -146 363 l-39 45 58 42 c102 76 183
207 215 353 20 88 15 261 -11 356 -23 86 -105 249 -163 325 -107 141 -268 275
-444 370 l-76 41 30 32 c52 56 71 105 76 193 4 72 1 89 -20 136 -34 74 -79
122 -144 154 -70 34 -169 42 -234 18z m191 -159 c97 -63 91 -204 -10 -272 -40
-27 -117 -31 -161 -8 -63 32 -99 109 -86 180 9 45 68 112 110 125 44 13 105 3
147 -25z m69 -520 c257 -129 458 -325 543 -531 118 -282 41 -581 -180 -693
-41 -21 -52 -21 -526 -21 l-483 0 -51 25 c-58 29 -141 112 -171 171 -78 153
-75 357 8 540 101 222 325 423 614 548 91 40 88 40 246 -39z m337 -1429 c46
-40 109 -129 119 -168 l6 -28 -626 0 c-494 0 -626 3 -626 13 0 25 57 109 109
162 l55 55 461 0 461 0 41 -34z m158 -378 c-10 -47 -22 -58 -100 -94 -238
-109 -733 -125 -1033 -33 -127 40 -182 78 -182 129 l0 30 661 0 661 0 -7 -32z
m-607 -382 c137 -69 289 -94 652 -106 456 -15 524 -22 605 -63 59 -29 145 -88
145 -98 0 -15 -50 -10 -123 10 -132 38 -210 43 -662 45 -457 1 -501 5 -628 49
-34 12 -46 11 -115 -9 -130 -37 -238 -45 -665 -44 -418 1 -447 -1 -607 -45
-41 -12 -76 -16 -94 -11 l-29 7 29 30 c60 62 194 104 372 114 48 3 213 10 367
15 157 5 322 16 375 25 109 18 243 58 286 85 38 24 37 24 92 -4z"/>
<path d="M10621 7123 c-18 -16 -21 -31 -23 -118 l-3 -100 -100 -3 c-87 -2
-102 -5 -117 -23 -27 -32 -23 -74 8 -98 23 -18 41 -21 120 -21 l94 0 0 -98 c0
-110 11 -132 66 -132 58 0 74 31 74 144 l0 86 86 0 c114 0 144 16 144 76 0 53
-23 64 -133 64 l-97 0 0 94 c0 79 -3 97 -21 120 -24 31 -66 35 -98 9z"/>
<path d="M2081 8014 c-17 -21 -21 -41 -21 -95 l0 -69 -98 0 c-112 0 -132 -11
-132 -68 0 -58 26 -72 135 -72 l95 0 0 -122 0 -123 -46 -19 c-100 -41 -213
-181 -250 -311 -13 -45 -15 -82 -11 -157 l5 -98 -41 28 c-230 156 -505 223
-721 177 -227 -48 -396 -210 -482 -460 -23 -67 -28 -96 -28 -185 0 -120 10
-164 64 -275 72 -149 203 -288 387 -412 l83 -55 2 -355 3 -356 84 -47 c166
-96 403 -171 648 -206 163 -24 495 -24 658 0 154 22 305 59 425 103 107 39
279 126 298 151 9 12 12 95 12 338 l0 322 113 75 c351 234 533 505 513 767
-11 156 -70 277 -195 398 -219 213 -523 268 -845 151 -45 -16 -113 -47 -150
-69 -38 -22 -70 -40 -71 -40 -2 0 -1 24 2 53 17 171 -109 395 -261 462 l-56
25 0 120 0 120 94 0 c79 0 97 3 120 21 29 23 35 63 12 95 -12 16 -30 20 -118
24 l-103 5 -3 75 c-2 62 -6 78 -23 93 -32 26 -74 22 -98 -9z m140 -712 c48
-31 84 -74 118 -140 32 -63 41 -127 30 -212 -15 -124 -33 -168 -100 -250 -33
-41 -80 -107 -104 -147 l-43 -73 -33 52 c-19 29 -55 78 -81 109 -69 84 -111
220 -112 369 0 85 2 101 27 148 80 153 195 209 298 144z m-883 -372 c266 -74
523 -283 682 -555 l40 -70 0 -161 0 -161 -122 -7 c-256 -14 -506 -64 -711
-140 l-96 -36 -53 32 c-176 107 -332 259 -396 387 -78 156 -76 290 8 458 72
141 189 236 333 269 80 18 218 11 315 -16z m1892 4 c96 -28 187 -83 260 -156
80 -80 123 -160 140 -257 39 -222 -128 -473 -459 -689 -75 -49 -87 -54 -110
-44 -291 120 -416 149 -809 188 l-53 6 3 167 3 166 53 105 c141 281 394 477
686 530 69 12 219 4 286 -16z m-939 -1105 c240 -19 480 -73 656 -148 l63 -26
0 -89 c0 -80 -2 -87 -17 -81 -134 59 -383 121 -588 146 -148 19 -523 16 -675
-5 -201 -27 -404 -79 -552 -141 -16 -6 -18 1 -18 79 l0 86 38 19 c72 37 246
92 366 116 255 50 478 64 727 44z m129 -345 c157 -20 326 -59 440 -101 160
-60 150 -50 150 -149 0 -78 -2 -85 -17 -79 -164 65 -404 123 -603 146 -154 17
-489 15 -645 -5 -195 -25 -410 -79 -568 -141 -16 -7 -18 -1 -15 81 l3 88 80
34 c308 129 764 178 1175 126z m-52 -325 c179 -19 512 -98 545 -129 11 -10
-146 -72 -263 -104 -345 -92 -755 -94 -1105 -5 -153 39 -303 97 -283 110 53
35 358 109 523 127 114 13 468 14 583 1z"/>
<path d="M14724 7916 c-63 -43 -147 -134 -186 -203 l-30 -53 -51 0 -52 1 -40
60 c-90 136 -209 216 -280 189 -67 -25 -75 -42 -75 -162 0 -83 5 -122 21 -173
l22 -65 -31 -62 c-18 -35 -56 -92 -86 -128 -127 -151 -535 -901 -610 -1122
-58 -169 -18 -394 90 -500 55 -55 125 -78 239 -78 94 0 94 0 110 -29 23 -46
53 -61 115 -61 91 0 149 35 229 139 95 123 157 187 231 239 229 161 370 273
498 396 105 101 103 103 77 -50 -26 -151 -73 -271 -154 -394 -19 -30 -119
-141 -221 -245 -278 -285 -347 -401 -379 -638 -17 -123 -15 -154 14 -182 l24
-25 1114 0 c1089 0 1114 0 1134 19 31 29 38 179 24 526 -22 561 -79 928 -196
1265 -51 147 -163 368 -241 477 -221 309 -543 506 -937 574 -67 12 -127 23
-133 24 -6 2 -14 30 -17 63 -12 117 -56 197 -120 221 -41 16 -47 14 -103 -23z
m71 -157 c4 -11 10 -57 14 -102 12 -130 11 -128 161 -147 272 -34 540 -141
717 -286 141 -116 266 -278 359 -469 104 -214 169 -431 218 -725 43 -257 57
-436 63 -787 l6 -333 -1017 0 -1016 0 0 33 c0 48 26 147 55 212 41 94 111 181
278 348 173 173 251 270 314 392 79 153 116 313 132 570 7 117 13 150 35 202
14 34 29 88 32 120 5 50 3 62 -16 86 -15 19 -30 27 -54 27 -45 0 -65 -26 -70
-89 -15 -180 -246 -429 -689 -745 -142 -102 -209 -166 -305 -292 -57 -75 -104
-115 -118 -102 -3 3 9 37 26 74 36 77 41 131 16 168 -35 54 -148 53 -184 -1
-9 -15 -19 -54 -22 -88 l-5 -60 -55 -3 c-79 -5 -116 5 -155 39 -41 36 -63 99
-72 206 -5 59 -2 85 17 145 53 165 466 931 574 1063 72 88 117 161 143 235 29
82 29 98 -2 156 -18 33 -25 62 -25 98 l1 51 41 -45 c22 -25 60 -75 84 -111 24
-37 51 -69 60 -73 31 -12 239 -7 256 7 8 6 31 42 51 78 35 64 120 169 137 169
5 0 12 -9 15 -21z"/>
<path d="M14204 7258 c-17 -4 -51 -29 -76 -55 -94 -102 -132 -244 -78 -297 25
-24 42 -29 89 -27 35 1 119 92 155 165 65 136 20 243 -90 214z"/>
<path d="M13593 6220 c-41 -25 -53 -48 -53 -104 0 -110 138 -150 208 -61 41
51 21 140 -38 170 -39 20 -79 19 -117 -5z"/>
<path d="M18066 7739 l-26 -20 0 -269 0 -268 140 -138 140 -138 0 -574 0 -573
-52 -89 c-41 -67 -60 -90 -84 -99 -47 -17 -54 -45 -54 -216 l0 -155 -114 0
c-99 0 -117 -3 -140 -21 l-26 -20 0 -174 0 -174 26 -20 27 -21 1297 0 1297 0
27 21 26 20 0 170 c0 167 0 170 -25 194 -23 24 -30 25 -140 25 l-115 0 0 155
c0 171 -7 199 -54 216 -24 9 -43 32 -83 99 l-53 89 0 573 0 574 140 138 140
138 0 268 0 269 -26 20 c-25 20 -39 21 -236 21 -208 0 -209 0 -233 -25 -22
-21 -25 -33 -25 -95 l0 -70 -165 0 -165 0 0 70 c0 62 -3 74 -25 95 l-24 25
-261 0 -261 0 -24 -25 c-22 -21 -25 -33 -25 -95 l0 -70 -165 0 -165 0 0 70 c0
62 -3 74 -25 95 -24 25 -25 25 -233 25 -197 0 -211 -1 -236 -21z m354 -200 c3
-43 11 -83 19 -93 12 -14 45 -16 286 -16 320 0 302 -6 307 110 l3 75 165 0
165 0 3 -75 c5 -116 -13 -110 307 -110 241 0 274 2 286 16 8 10 16 50 19 93
l5 76 115 0 115 0 3 -167 2 -168 -1020 0 -1020 0 0 163 c0 90 3 167 7 171 4 3
57 5 117 4 l111 -3 5 -76z m1625 -469 l-69 -70 -776 0 -776 0 -69 70 -69 70
914 0 914 0 -69 -70z m-115 -700 l0 -560 -730 0 -730 0 0 560 0 560 730 0 730
0 0 -560z m22 -668 c9 -20 28 -56 43 -79 l26 -43 -821 0 -821 0 26 43 c15 23
34 59 43 79 l17 38 735 0 735 0 17 -38z m168 -387 l0 -115 -920 0 -920 0 0
115 0 115 920 0 920 0 0 -115z m288 -334 l3 -71 -1211 0 -1210 0 0 68 c0 38 2
71 4 73 2 2 546 3 1208 2 l1203 -1 3 -71z"/>
<path d="M23331 7749 c-165 -32 -312 -176 -350 -340 -17 -73 -12 -168 12 -239
l22 -65 -63 -59 c-147 -138 -215 -296 -216 -496 0 -158 43 -292 131 -407 34
-45 35 -48 17 -60 -156 -110 -247 -196 -337 -320 -174 -244 -271 -542 -284
-880 l-6 -163 1161 0 1162 0 0 99 c0 353 -113 709 -306 967 -67 89 -201 217
-280 268 l-61 40 38 49 c88 117 132 249 132 402 1 189 -63 345 -197 481 l-81
82 18 47 c41 109 31 249 -27 363 -86 170 -294 269 -485 231z m226 -170 c70
-33 106 -71 139 -144 49 -110 40 -205 -31 -310 l-43 -64 73 -46 c171 -106 265
-272 265 -464 0 -187 -77 -332 -244 -461 -25 -19 -45 -37 -46 -40 0 -3 36 -18
79 -33 126 -45 196 -92 311 -207 220 -221 340 -504 374 -877 l6 -63 -1020 0
c-699 0 -1020 3 -1020 10 0 46 25 222 42 295 64 280 184 497 372 672 89 83
210 154 314 184 23 7 42 15 42 18 0 3 -22 22 -47 41 -168 126 -247 275 -246
465 1 193 100 361 276 465 31 19 57 38 57 43 0 4 -16 30 -35 58 -114 166 -66
372 107 460 86 44 179 43 275 -2z"/>
<path d="M10567 3806 c-205 -74 -273 -328 -132 -493 l34 -41 -62 -32 c-183
-96 -377 -261 -477 -406 -138 -200 -196 -433 -156 -634 31 -157 121 -304 232
-381 l44 -30 -47 -57 c-54 -66 -99 -158 -109 -221 l-7 -44 24 16 c21 16 89 17
755 17 719 0 732 0 757 -20 l26 -21 -6 38 c-13 85 -63 183 -130 254 l-35 36
35 22 c19 12 61 50 94 84 290 310 185 848 -229 1182 -81 65 -206 146 -280 181
l-37 17 39 44 c48 54 70 118 70 198 0 124 -63 223 -175 276 -68 33 -161 39
-228 15z m139 -944 c24 -16 34 -55 34 -136 l0 -86 86 0 c113 0 144 -16 144
-74 0 -55 -22 -66 -132 -66 l-98 0 0 -94 c0 -79 -3 -97 -21 -120 -24 -31 -66
-35 -98 -8 -18 15 -21 30 -23 117 l-3 100 -100 3 c-87 2 -102 5 -117 23 -27
32 -23 74 8 98 23 18 41 21 120 21 l94 0 0 97 c0 76 4 100 17 115 16 18 68 24
89 10z m478 -1003 c32 -25 35 -70 6 -99 -19 -19 -33 -20 -524 -20 l-505 0 -20
26 c-27 35 -26 59 4 89 l24 25 494 0 c485 0 495 0 521 -21z"/>
<path d="M2109 3768 c-35 -12 -49 -46 -49 -118 l0 -58 -94 -4 c-109 -4 -136
-18 -136 -74 0 -56 35 -74 141 -74 l89 0 0 -119 0 -119 -56 -27 c-81 -40 -156
-121 -207 -223 l-42 -86 0 -125 0 -126 -50 34 c-74 50 -239 127 -330 153 -67
19 -104 23 -225 23 -127 0 -154 -3 -219 -24 -194 -64 -344 -223 -418 -446 -38
-115 -38 -256 1 -372 54 -164 214 -355 409 -488 l86 -58 20 24 c11 13 20 26
21 29 0 3 -32 25 -71 49 -214 132 -363 306 -413 482 -54 194 -1 406 138 545
104 103 217 152 378 161 360 21 787 -212 1014 -555 l36 -54 54 81 c249 372
705 592 1069 516 142 -30 307 -137 386 -251 40 -59 68 -144 75 -229 21 -253
-159 -521 -491 -731 -64 -41 -75 -51 -75 -76 0 -35 -32 -68 -65 -68 -14 0 -52
13 -83 29 -133 67 -369 133 -582 163 -126 17 -546 17 -665 0 -233 -34 -452
-95 -584 -161 -70 -36 -103 -39 -131 -11 -20 20 -20 20 -20 -122 1 -108 3
-138 11 -124 14 24 168 96 286 135 103 34 281 73 423 93 144 20 573 17 725 -5
133 -20 295 -56 395 -89 98 -32 242 -97 268 -121 l22 -20 1 129 0 129 116 75
c148 96 312 250 390 367 180 271 158 555 -60 777 -93 95 -188 155 -304 194
-71 24 -92 26 -238 26 -147 0 -167 -2 -249 -27 -84 -26 -191 -74 -263 -118
l-32 -20 6 55 c19 186 -119 413 -289 475 l-28 11 0 119 0 119 101 4 c92 3 103
5 120 27 10 13 19 33 19 46 0 13 -9 33 -19 46 -17 22 -28 24 -120 27 l-101 4
0 72 c0 57 -4 76 -17 88 -26 22 -45 26 -74 16z"/>
<path d="M6351 3769 c-130 -24 -222 -146 -209 -279 9 -89 60 -161 154 -216 17
-10 13 -36 -90 -535 -93 -450 -116 -555 -116 -527 0 3 -83 222 -185 488 l-185
484 44 41 c60 55 86 113 86 196 1 272 -362 358 -487 115 -70 -135 0 -312 142
-359 l40 -14 -4 -304 c-2 -167 -7 -398 -10 -512 l-6 -208 -257 395 c-142 217
-258 397 -258 400 0 3 15 26 34 51 59 76 67 186 21 274 -21 41 -97 107 -141
122 -98 33 -206 6 -274 -67 -54 -59 -71 -102 -71 -179 0 -77 27 -140 82 -190
45 -40 76 -55 134 -64 l39 -6 102 -510 c57 -280 108 -543 113 -583 14 -97 39
-141 133 -240 43 -46 86 -98 94 -115 9 -18 32 -53 50 -78 25 -34 34 -57 34
-85 -1 -61 -19 -126 -40 -141 -34 -24 -88 -107 -109 -168 -11 -33 -32 -82 -46
-109 -46 -91 -23 -186 62 -251 106 -81 550 -186 908 -216 180 -14 528 -7 695
16 245 33 624 127 702 173 82 48 111 168 65 264 -13 29 -27 77 -30 105 -8 67
-35 130 -75 170 -33 32 -51 88 -52 157 0 28 9 51 34 85 18 25 41 60 50 78 8
17 51 69 94 115 94 99 119 143 133 240 5 40 56 303 113 583 l102 510 39 6 c58
9 89 24 134 64 112 102 112 279 -1 380 -22 20 -57 44 -77 52 -50 22 -136 21
-193 0 -56 -22 -130 -97 -148 -153 -29 -85 -8 -204 45 -254 14 -13 25 -27 25
-32 0 -5 -116 -187 -257 -404 l-258 -395 -6 208 c-3 114 -8 345 -10 512 l-4
304 40 14 c142 47 212 224 142 359 -125 243 -488 157 -487 -115 0 -83 26 -141
86 -196 l44 -41 -185 -484 c-102 -266 -187 -486 -190 -488 -3 -3 -5 -1 -5 4 0
5 -48 243 -107 528 -102 495 -106 520 -89 530 58 34 103 77 125 119 67 132 17
290 -112 350 -62 30 -107 37 -166 26z m409 -2009 c307 -35 739 -141 783 -192
25 -30 18 -76 -15 -101 l-27 -20 -118 36 c-350 109 -620 150 -988 149 -348 0
-625 -41 -940 -138 -160 -49 -157 -49 -188 -24 -32 25 -36 67 -9 98 45 53 505
163 797 192 61 5 128 12 150 14 70 7 456 -3 555 -14z m635 -425 c30 -29 32
-68 5 -95 -20 -20 -33 -20 -1000 -20 -967 0 -980 0 -1000 20 -27 27 -25 66 5
95 l24 25 971 0 971 0 24 -25z m-1881 -305 c301 -85 562 -120 886 -120 324 0
585 35 886 120 158 45 180 47 206 23 24 -22 24 -78 -1 -100 -57 -48 -453 -139
-761 -174 -156 -18 -537 -15 -705 5 -283 35 -663 124 -716 169 -24 21 -25 74
-2 99 23 26 48 23 207 -22z m-141 -276 c679 -219 1363 -220 2042 -3 73 23 134
37 146 34 47 -15 61 -82 23 -119 -29 -30 -354 -123 -575 -165 -357 -68 -861
-68 -1218 0 -181 35 -406 95 -527 141 -50 19 -74 47 -74 84 0 18 44 64 61 64
7 0 62 -16 122 -36z"/>
<path d="M14718 3645 c-64 -47 -122 -109 -170 -182 l-40 -63 -53 0 c-51 0 -52
0 -89 54 -80 116 -178 196 -241 196 -37 0 -92 -25 -104 -48 -17 -32 -13 -230
5 -277 9 -22 18 -50 21 -61 7 -32 -40 -121 -117 -217 -130 -165 -540 -922
-603 -1114 -57 -174 -16 -404 90 -505 56 -54 117 -73 230 -73 102 0 103 0 114
-27 17 -41 44 -60 94 -65 98 -12 178 36 272 161 79 104 153 174 288 271 174
124 289 216 414 332 l104 97 -8 -69 c-18 -170 -82 -347 -172 -473 -26 -37
-128 -150 -228 -252 -236 -241 -299 -335 -344 -511 -22 -87 -36 -226 -27 -263
15 -59 -37 -57 1170 -54 1095 3 1106 3 1126 23 17 18 21 38 26 155 7 158 -9
579 -31 800 -45 448 -135 799 -281 1089 -235 466 -599 725 -1141 811 -71 11
-73 13 -73 40 0 88 -40 191 -90 234 -44 36 -84 34 -142 -9z m637 -411 c28 -9
90 -37 140 -62 494 -253 783 -861 855 -1795 11 -150 14 -762 4 -815 l-6 -32
-102 0 -101 0 0 462 c0 386 -3 488 -18 613 -69 564 -223 954 -485 1227 -130
135 -257 215 -442 279 -52 17 -99 35 -103 39 -7 6 16 109 29 132 5 7 155 -24
229 -48z m-1063 -263 c29 -26 33 -35 32 -78 -1 -86 -85 -232 -154 -268 -42
-22 -85 -19 -117 9 -24 21 -28 31 -27 78 1 123 122 287 211 288 13 0 37 -13
55 -29z m-561 -1029 c59 -53 44 -166 -27 -192 -52 -20 -94 -12 -130 24 -29 29
-34 41 -34 81 0 40 5 52 34 81 29 29 41 34 80 34 36 0 52 -6 77 -28z"/>
<path d="M18060 3470 c-19 -19 -20 -33 -20 -289 l0 -269 140 -117 140 -117 0
-593 0 -593 -52 -87 c-39 -66 -59 -89 -85 -100 -19 -8 -37 -25 -43 -40 -6 -15
-10 -96 -10 -181 l0 -154 -118 0 c-166 0 -162 6 -162 -212 0 -148 2 -168 19
-189 l19 -24 1312 0 1312 0 19 24 c17 21 19 41 19 190 0 217 5 211 -163 211
l-117 0 0 154 c0 85 -4 166 -10 181 -6 15 -24 32 -43 40 -26 11 -46 34 -85
100 l-52 87 0 593 0 593 140 117 140 117 0 269 c0 256 -1 270 -20 289 -19 19
-33 20 -238 20 -215 0 -219 0 -240 -23 -18 -19 -22 -35 -22 -95 l0 -72 -165 0
-165 0 0 69 c0 54 -4 74 -21 95 l-20 26 -269 0 -269 0 -20 -26 c-17 -21 -21
-41 -21 -95 l0 -69 -165 0 -165 0 0 73 c0 64 -3 76 -23 95 -22 21 -31 22 -240
22 -204 0 -218 -1 -237 -20z m2270 -499 c14 -27 13 -37 -6 -55 -14 -14 -130
-16 -1124 -16 -994 0 -1110 2 -1124 16 -19 18 -20 28 -6 55 10 19 34 19 1130
19 1096 0 1120 0 1130 -19z m-299 -221 c12 -7 19 -21 19 -40 0 -19 -7 -33 -19
-40 -13 -7 -291 -10 -831 -10 -540 0 -818 3 -831 10 -25 14 -26 65 -1 79 24
14 1636 15 1663 1z m7 -1242 c7 -7 12 -21 12 -33 0 -12 -5 -26 -12 -33 -17
-17 -1659 -17 -1676 0 -7 7 -12 21 -12 33 0 12 5 26 12 33 17 17 1659 17 1676
0z m102 -197 c14 -27 13 -37 -6 -55 -14 -14 -112 -16 -934 -16 -822 0 -920 2
-934 16 -19 18 -20 28 -6 55 10 19 31 19 940 19 909 0 930 0 940 -19z m88
-373 c7 -7 12 -21 12 -33 0 -12 -5 -26 -12 -33 -17 -17 -2039 -17 -2056 0 -7
7 -12 21 -12 33 0 12 5 26 12 33 17 17 2039 17 2056 0z"/>
<path d="M23300 3474 c-157 -42 -287 -181 -321 -342 -14 -68 -7 -179 16 -244
l16 -47 -73 -73 c-86 -87 -138 -172 -175 -283 -22 -67 -26 -99 -26 -195 -1
-165 36 -281 131 -415 32 -45 34 -50 17 -60 -51 -29 -176 -129 -221 -176 -154
-164 -277 -386 -340 -615 -40 -148 -55 -249 -61 -411 l-6 -153 1163 0 1163 0
-6 148 c-13 330 -99 608 -263 854 -78 117 -212 255 -306 317 -38 24 -68 46
-68 48 0 3 16 27 35 53 45 61 90 158 111 240 23 87 23 244 0 330 -36 131 -136
289 -226 356 -26 19 -38 34 -33 44 40 99 51 183 33 272 -50 260 -306 420 -560
352z"/>
<path d="M1017 2579 c-131 -27 -226 -100 -284 -217 -37 -74 -38 -79 -38 -186
0 -102 2 -116 30 -176 59 -128 186 -256 345 -349 47 -27 94 -58 106 -70 l20
-20 122 39 c202 65 478 110 671 110 l76 0 -3 118 c-5 135 -10 152 -89 271
-180 271 -519 473 -813 486 -52 2 -117 0 -143 -6z"/>
<path d="M2988 2580 c-234 -40 -493 -203 -648 -409 -28 -36 -70 -105 -95 -152
l-44 -85 2 -111 2 -110 90 -7 c206 -15 426 -59 590 -116 50 -18 100 -34 112
-37 40 -9 244 122 366 236 157 146 236 327 207 474 -15 79 -46 133 -112 192
-122 109 -292 155 -470 125z"/>
<path d="M11451 1429 c0 -9 -10 -28 -22 -43 l-20 -26 -743 0 c-695 0 -744 1
-758 18 -8 9 -19 26 -23 37 -7 17 -9 15 -16 -15 -10 -38 -4 -102 14 -163 26
-90 182 -167 451 -222 15 -3 27 -8 25 -10 -13 -12 -238 -27 -509 -35 -428 -12
-556 -36 -674 -124 -67 -50 -133 -127 -142 -163 -10 -36 40 -101 101 -132 63
-33 148 -33 258 -2 113 32 267 41 592 34 312 -6 480 4 609 37 70 18 74 18 152
-1 135 -32 269 -40 661 -37 388 2 443 -2 558 -39 74 -25 180 -23 231 4 58 31
104 86 104 125 0 52 -112 149 -256 221 -110 55 -193 67 -569 78 -315 9 -541
28 -485 41 14 4 66 16 117 28 51 11 116 30 145 42 68 27 156 86 180 119 28 37
44 145 31 200 -6 24 -11 37 -12 28z"/>
<path d="M1845 1230 c-264 -27 -538 -99 -705 -185 -40 -21 -76 -19 -100 5
l-20 20 0 -142 c1 -108 3 -138 11 -124 6 10 52 38 103 61 480 223 1230 246
1771 55 97 -35 200 -83 228 -108 16 -14 17 -8 17 124 0 128 -1 137 -16 116
-22 -31 -58 -28 -147 13 -153 71 -360 127 -572 155 -111 15 -461 21 -570 10z"/>
<path d="M1875 900 c-204 -17 -420 -62 -573 -119 -84 -31 -212 -90 -212 -98 0
-10 211 -104 299 -133 211 -69 430 -100 703 -100 362 0 652 62 921 196 48 24
87 47 87 50 0 3 -5 2 -10 -1 -6 -3 -54 14 -108 38 -239 109 -496 162 -832 171
-96 3 -220 1 -275 -4z"/>
</g>
</svg>
